<?xml version="1.0" encoding="UTF-8" standalone="no"?>
<svg width="76px" height="10px" viewBox="0 0 76 10" version="1.1" xmlns="http://www.w3.org/2000/svg" xmlns:xlink="http://www.w3.org/1999/xlink" xmlns:sketch="http://www.bohemiancoding.com/sketch/ns">
    <!-- Generator: Sketch 3.4.4 (17249) - http://www.bohemiancoding.com/sketch -->
    <title>GET STARTED</title>
    <desc>Created with Sketch.</desc>
    <defs></defs>
    <g id="Page-1" stroke="none" stroke-width="1" fill="none" fill-rule="evenodd" sketch:type="MSPage">
        <g id="Theme-2---728x90" sketch:type="MSArtboardGroup" transform="translate(-621.000000, -38.000000)" fill="#FFFFFF">
            <path d="M621.492,42.812 C621.492,45.212 623.412,47.108 625.8,47.108 C627.54,47.108 628.776,46.328 628.776,46.328 C628.824,46.292 628.872,46.232 628.872,46.136 L628.872,43.064 C628.872,42.944 628.776,42.836 628.656,42.836 L626.352,42.836 C626.22,42.836 626.124,42.932 626.124,43.064 L626.124,44.012 C626.124,44.132 626.22,44.228 626.352,44.228 L627.312,44.228 L627.312,45.248 C627.072,45.344 626.556,45.548 625.884,45.548 C624.372,45.548 623.184,44.288 623.184,42.8 C623.184,41.3 624.372,40.016 625.872,40.016 C626.532,40.016 627.168,40.256 627.684,40.712 C627.792,40.808 627.9,40.808 627.996,40.712 L628.74,39.932 C628.836,39.836 628.824,39.692 628.728,39.596 C627.912,38.9 626.88,38.48 625.8,38.48 C623.412,38.48 621.492,40.412 621.492,42.812 L621.492,42.812 Z M630.769333,46.772 C630.769333,46.892 630.865333,47 630.997333,47 L635.881333,47 C636.013333,47 636.109333,46.892 636.109333,46.772 L636.109333,45.788 C636.109333,45.668 636.013333,45.56 635.881333,45.56 L632.329333,45.56 L632.329333,43.46 L635.293333,43.46 C635.413333,43.46 635.521333,43.364 635.521333,43.232 L635.521333,42.236 C635.521333,42.116 635.413333,42.008 635.293333,42.008 L632.329333,42.008 L632.329333,40.04 L635.881333,40.04 C636.013333,40.04 636.109333,39.932 636.109333,39.812 L636.109333,38.828 C636.109333,38.708 636.013333,38.6 635.881333,38.6 L630.997333,38.6 C630.865333,38.6 630.769333,38.708 630.769333,38.828 L630.769333,46.772 Z M639.086667,46.772 C639.086667,46.892 639.194667,47 639.314667,47 L640.430667,47 C640.550667,47 640.658667,46.892 640.658667,46.772 L640.658667,40.04 L642.494667,40.04 C642.626667,40.04 642.722667,39.932 642.722667,39.812 L642.722667,38.828 C642.722667,38.708 642.626667,38.6 642.494667,38.6 L637.250667,38.6 C637.118667,38.6 637.022667,38.708 637.022667,38.828 L637.022667,39.812 C637.022667,39.932 637.118667,40.04 637.250667,40.04 L639.086667,40.04 L639.086667,46.772 Z M646.457333,46.184 C646.697333,46.412 647.585333,47.12 649.097333,47.12 C650.789333,47.12 651.857333,45.98 651.857333,44.744 C651.857333,43.196 650.513333,42.5 649.349333,42.032 C648.377333,41.636 647.933333,41.252 647.933333,40.688 C647.933333,40.304 648.305333,39.848 648.989333,39.848 C649.649333,39.848 650.561333,40.448 650.657333,40.508 C650.801333,40.604 650.981333,40.508 651.077333,40.364 L651.533333,39.68 C651.617333,39.56 651.581333,39.356 651.461333,39.284 C651.221333,39.104 650.285333,38.48 649.061333,38.48 C647.153333,38.48 646.361333,39.716 646.361333,40.784 C646.361333,42.2 647.489333,42.92 648.617333,43.376 C649.625333,43.784 650.141333,44.204 650.141333,44.816 C650.141333,45.332 649.673333,45.74 649.049333,45.74 C648.269333,45.74 647.297333,45.032 647.237333,44.996 C647.129333,44.912 646.925333,44.912 646.829333,45.08 L646.397333,45.824 C646.289333,46.016 646.349333,46.076 646.457333,46.184 L646.457333,46.184 Z M654.654667,46.772 C654.654667,46.892 654.762667,47 654.882667,47 L655.998667,47 C656.118667,47 656.226667,46.892 656.226667,46.772 L656.226667,40.04 L658.062667,40.04 C658.194667,40.04 658.290667,39.932 658.290667,39.812 L658.290667,38.828 C658.290667,38.708 658.194667,38.6 658.062667,38.6 L652.818667,38.6 C652.686667,38.6 652.590667,38.708 652.590667,38.828 L652.590667,39.812 C652.590667,39.932 652.686667,40.04 652.818667,40.04 L654.654667,40.04 L654.654667,46.772 Z M658.328,47 L659.372,47 C659.564,47 659.672,46.88 659.72,46.76 L660.308,45.464 L663.896,45.464 L664.484,46.76 C664.568,46.928 664.652,47 664.832,47 L665.876,47 C666.056,47 666.152,46.844 666.08,46.688 L662.384,38.612 C662.348,38.54 662.3,38.48 662.18,38.48 L662.06,38.48 C661.952,38.48 661.892,38.54 661.856,38.612 L658.124,46.688 C658.052,46.844 658.148,47 658.328,47 L658.328,47 Z M660.896,44.132 L662.072,41.492 L662.108,41.492 L663.308,44.132 L660.896,44.132 Z M667.305333,46.772 C667.305333,46.892 667.401333,47 667.533333,47 L668.637333,47 C668.757333,47 668.865333,46.892 668.865333,46.772 L668.865333,43.712 L670.197333,43.712 L671.793333,46.892 C671.817333,46.94 671.877333,47 671.985333,47 L673.245333,47 C673.449333,47 673.533333,46.808 673.449333,46.652 L671.805333,43.604 C672.849333,43.184 673.581333,42.284 673.581333,41.18 C673.581333,39.752 672.405333,38.6 670.965333,38.6 L667.533333,38.6 C667.401333,38.6 667.305333,38.708 667.305333,38.828 L667.305333,46.772 Z M668.877333,42.428 L668.877333,40.04 L670.833333,40.04 C671.469333,40.04 672.021333,40.568 672.021333,41.204 C672.021333,41.876 671.469333,42.428 670.833333,42.428 L668.877333,42.428 Z M676.558667,46.772 C676.558667,46.892 676.666667,47 676.786667,47 L677.902667,47 C678.022667,47 678.130667,46.892 678.130667,46.772 L678.130667,40.04 L679.966667,40.04 C680.098667,40.04 680.194667,39.932 680.194667,39.812 L680.194667,38.828 C680.194667,38.708 680.098667,38.6 679.966667,38.6 L674.722667,38.6 C674.590667,38.6 674.494667,38.708 674.494667,38.828 L674.494667,39.812 C674.494667,39.932 674.590667,40.04 674.722667,40.04 L676.558667,40.04 L676.558667,46.772 Z M681.576,46.772 C681.576,46.892 681.672,47 681.804,47 L686.688,47 C686.82,47 686.916,46.892 686.916,46.772 L686.916,45.788 C686.916,45.668 686.82,45.56 686.688,45.56 L683.136,45.56 L683.136,43.46 L686.1,43.46 C686.22,43.46 686.328,43.364 686.328,43.232 L686.328,42.236 C686.328,42.116 686.22,42.008 686.1,42.008 L683.136,42.008 L683.136,40.04 L686.688,40.04 C686.82,40.04 686.916,39.932 686.916,39.812 L686.916,38.828 C686.916,38.708 686.82,38.6 686.688,38.6 L681.804,38.6 C681.672,38.6 681.576,38.708 681.576,38.828 L681.576,46.772 Z M688.765333,46.772 C688.765333,46.892 688.861333,47 688.981333,47 L691.825333,47 C694.141333,47 696.037333,45.116 696.037333,42.788 C696.037333,40.484 694.141333,38.6 691.825333,38.6 L688.981333,38.6 C688.861333,38.6 688.765333,38.708 688.765333,38.828 L688.765333,46.772 Z M690.313333,45.536 L690.313333,40.052 L691.681333,40.052 C693.241333,40.052 694.381333,41.228 694.381333,42.788 C694.381333,44.36 693.241333,45.536 691.681333,45.536 L690.313333,45.536 Z" id="GET-STARTED" sketch:type="MSShapeGroup"></path>
        </g>
    </g>
</svg>